G04 #@! TF.FileFunction,Soldermask,Bot*
%FSLAX46Y46*%
G04 Gerber Fmt 4.6, Leading zero omitted, Abs format (unit mm)*
G04 Created by KiCad (PCBNEW 4.0.6) date 2018 May 30, Wednesday 17:12:06*
%MOMM*%
%LPD*%
G01*
G04 APERTURE LIST*
%ADD10C,0.100000*%
%ADD11O,5.002000X2.602000*%
%ADD12C,0.402000*%
%ADD13C,6.502000*%
%ADD14C,7.502000*%
%ADD15C,3.102000*%
%ADD16C,4.002000*%
%ADD17R,2.100000X2.100000*%
%ADD18O,2.100000X2.100000*%
%ADD19R,1.200000X1.150000*%
%ADD20R,1.100000X1.300000*%
%ADD21R,1.300000X1.100000*%
%ADD22R,1.150000X1.200000*%
%ADD23R,1.300000X1.200000*%
%ADD24R,1.600000X2.400000*%
%ADD25R,3.000000X2.800000*%
%ADD26O,2.900000X1.900000*%
%ADD27O,2.900000X2.000000*%
%ADD28O,2.800000X2.000000*%
%ADD29R,1.200000X1.300000*%
%ADD30R,2.800000X1.900000*%
%ADD31R,1.900000X2.800000*%
%ADD32R,1.700000X1.700000*%
%ADD33C,1.700000*%
%ADD34R,2.127200X2.127200*%
%ADD35O,2.127200X2.127200*%
%ADD36C,5.900000*%
%ADD37R,2.200000X4.600000*%
%ADD38R,3.900000X4.400000*%
%ADD39C,2.000000*%
%ADD40R,4.400000X3.900000*%
%ADD41R,0.908000X1.543000*%
%ADD42R,2.150000X0.850000*%
%ADD43R,1.960000X1.050000*%
%ADD44R,2.200000X2.200000*%
%ADD45C,2.200000*%
%ADD46R,4.057600X2.432000*%
%ADD47R,1.416000X2.432000*%
G04 APERTURE END LIST*
D10*
D11*
X-85500000Y7350000D03*
X-9500000Y7350000D03*
X-9500000Y-115350000D03*
D12*
X-300000Y-85600000D03*
X-300000Y-85000000D03*
X-300000Y-84400000D03*
X-1700000Y-84400000D03*
X-1700000Y-85000000D03*
X-1700000Y-85600000D03*
X-300000Y-107600000D03*
X-300000Y-107000000D03*
X-300000Y-106400000D03*
X-1700000Y-106400000D03*
X-1700000Y-107000000D03*
X-1700000Y-107600000D03*
X-300000Y-58600000D03*
X-300000Y-58000000D03*
X-300000Y-57400000D03*
X-1700000Y-57400000D03*
X-1700000Y-58000000D03*
X-1700000Y-58600000D03*
D13*
X-56500000Y-88000000D03*
X-46000000Y-88000000D03*
X-35500000Y-102000000D03*
X-35500000Y-88000000D03*
X-56500000Y-102000000D03*
X-46000000Y-102000000D03*
D14*
X-10000000Y-25750000D03*
X-32000000Y-52750000D03*
X-54000000Y-52750000D03*
X-32000000Y-25750000D03*
X-54000000Y-25750000D03*
X-10000000Y-52750000D03*
D15*
X-67000000Y-68250000D03*
D16*
X-88000000Y-74000000D03*
X-77500000Y-74000000D03*
X-67000000Y-74000000D03*
D13*
X-7000000Y-102000000D03*
D15*
X-24250000Y-102000000D03*
X-24250000Y-88000000D03*
D13*
X-17500000Y-88000000D03*
X-17500000Y-102000000D03*
X-7000000Y-88000000D03*
X-77500000Y-88000000D03*
X-67000000Y-102000000D03*
X-77500000Y-102000000D03*
X-88000000Y-102000000D03*
X-67000000Y-88000000D03*
X-88000000Y-88000000D03*
D17*
X75460000Y-66880000D03*
D18*
X78000000Y-66880000D03*
X75460000Y-69420000D03*
X78000000Y-69420000D03*
X75460000Y-71960000D03*
X78000000Y-71960000D03*
X75460000Y-74500000D03*
X78000000Y-74500000D03*
X75460000Y-77040000D03*
X78000000Y-77040000D03*
D19*
X79250000Y-45500000D03*
X77750000Y-45500000D03*
X79250000Y-31250000D03*
X77750000Y-31250000D03*
D20*
X53900000Y-35750000D03*
X55600000Y-35750000D03*
X70850000Y-8250000D03*
X69150000Y-8250000D03*
D21*
X36000000Y-103400000D03*
X36000000Y-105100000D03*
X61500000Y-59900000D03*
X61500000Y-61600000D03*
X37500000Y-18600000D03*
X37500000Y-16900000D03*
D20*
X42600000Y-32250000D03*
X40900000Y-32250000D03*
D22*
X74500000Y-16000000D03*
X74500000Y-14500000D03*
D19*
X41000000Y-34000000D03*
X42500000Y-34000000D03*
X54000000Y-34000000D03*
X55500000Y-34000000D03*
X68500000Y-1750000D03*
X70000000Y-1750000D03*
X53950000Y-6300000D03*
X55450000Y-6300000D03*
X49000000Y-34000000D03*
X47500000Y-34000000D03*
X68500000Y-3500000D03*
X70000000Y-3500000D03*
X54000000Y-2500000D03*
X55500000Y-2500000D03*
D22*
X45000000Y-34250000D03*
X45000000Y-35750000D03*
X77750000Y-57250000D03*
X77750000Y-55750000D03*
D19*
X40750000Y-48750000D03*
X42250000Y-48750000D03*
D22*
X19900000Y-8700000D03*
X19900000Y-7200000D03*
X75000000Y-44000000D03*
X75000000Y-45500000D03*
X75000000Y-31250000D03*
X75000000Y-32750000D03*
X58000000Y-34250000D03*
X58000000Y-35750000D03*
D19*
X62500000Y-77750000D03*
X61000000Y-77750000D03*
D22*
X66750000Y-40750000D03*
X66750000Y-39250000D03*
X66750000Y-36000000D03*
X66750000Y-37500000D03*
D23*
X76000000Y-57050000D03*
X76000000Y-58950000D03*
X74000000Y-58000000D03*
D24*
X74650000Y-80000000D03*
X77850000Y-80000000D03*
X74650000Y-64000000D03*
X77850000Y-64000000D03*
D20*
X70850000Y-6500000D03*
X69150000Y-6500000D03*
D21*
X25500000Y-86600000D03*
X25500000Y-84900000D03*
D20*
X55600000Y-32250000D03*
X53900000Y-32250000D03*
X40900000Y-35750000D03*
X42600000Y-35750000D03*
X47400000Y-32250000D03*
X49100000Y-32250000D03*
D21*
X59500000Y-18600000D03*
X59500000Y-16900000D03*
D20*
X60400000Y-32250000D03*
X62100000Y-32250000D03*
D21*
X69000000Y-52150000D03*
X69000000Y-53850000D03*
X36000000Y-86600000D03*
X36000000Y-84900000D03*
X46500000Y-103400000D03*
X46500000Y-105100000D03*
D20*
X49100000Y-35750000D03*
X47400000Y-35750000D03*
X62100000Y-35750000D03*
X60400000Y-35750000D03*
D21*
X77750000Y-58650000D03*
X77750000Y-60350000D03*
X46000000Y-47050000D03*
X46000000Y-48750000D03*
X81500000Y-18600000D03*
X81500000Y-16900000D03*
X46500000Y-86600000D03*
X46500000Y-84900000D03*
D20*
X49350000Y-47000000D03*
X47650000Y-47000000D03*
X14250000Y-77250000D03*
X15950000Y-77250000D03*
D21*
X17750000Y-76900000D03*
X17750000Y-78600000D03*
X44000000Y-47050000D03*
X44000000Y-48750000D03*
X39500000Y-59900000D03*
X39500000Y-61600000D03*
X25500000Y-103400000D03*
X25500000Y-105100000D03*
D20*
X9600000Y-79750000D03*
X7900000Y-79750000D03*
X12750000Y-79750000D03*
X11050000Y-79750000D03*
X40650000Y-47000000D03*
X42350000Y-47000000D03*
D25*
X71500000Y-15650000D03*
X71500000Y-10850000D03*
D26*
X25500000Y-83080000D03*
D27*
X25500000Y-91380000D03*
D28*
X25500000Y-93800000D03*
D26*
X36000000Y-83080000D03*
D27*
X36000000Y-91380000D03*
D28*
X36000000Y-93800000D03*
D26*
X46500000Y-83080000D03*
D27*
X46500000Y-91380000D03*
D28*
X46500000Y-93800000D03*
D26*
X25500000Y-106920000D03*
D27*
X25500000Y-98620000D03*
D28*
X25500000Y-96200000D03*
D29*
X7550000Y-86750000D03*
X9450000Y-86750000D03*
X8500000Y-88750000D03*
X18050000Y-86750000D03*
X19950000Y-86750000D03*
X19000000Y-88750000D03*
X6550000Y-103500000D03*
X8450000Y-103500000D03*
X7500000Y-105500000D03*
X17050000Y-103500000D03*
X18950000Y-103500000D03*
X18000000Y-105500000D03*
D20*
X41650000Y-4500000D03*
X43350000Y-4500000D03*
D21*
X57000000Y-103050000D03*
X57000000Y-104750000D03*
X57000000Y-86750000D03*
X57000000Y-85050000D03*
D20*
X70650000Y-45500000D03*
X72350000Y-45500000D03*
X70650000Y-31250000D03*
X72350000Y-31250000D03*
X6350000Y-85000000D03*
X4650000Y-85000000D03*
X9350000Y-85000000D03*
X7650000Y-85000000D03*
X70650000Y-43750000D03*
X72350000Y-43750000D03*
X70650000Y-33000000D03*
X72350000Y-33000000D03*
D21*
X68500000Y-42150000D03*
X68500000Y-43850000D03*
X68500000Y-34600000D03*
X68500000Y-32900000D03*
X68500000Y-39150000D03*
X68500000Y-40850000D03*
X68500000Y-37600000D03*
X68500000Y-35900000D03*
D20*
X16850000Y-85000000D03*
X15150000Y-85000000D03*
X19850000Y-85000000D03*
X18150000Y-85000000D03*
X80900000Y-35250000D03*
X82600000Y-35250000D03*
X80900000Y-41500000D03*
X82600000Y-41500000D03*
X79350000Y-29500000D03*
X77650000Y-29500000D03*
X82600000Y-37250000D03*
X80900000Y-37250000D03*
D22*
X74500000Y-10500000D03*
X74500000Y-12000000D03*
X67900000Y-14000000D03*
X67900000Y-12500000D03*
D19*
X54000000Y-11000000D03*
X55500000Y-11000000D03*
X62000000Y-34000000D03*
X60500000Y-34000000D03*
D30*
X71250000Y-79950000D03*
X71250000Y-73550000D03*
X71250000Y-70450000D03*
X71250000Y-64050000D03*
D19*
X49250000Y-48750000D03*
X47750000Y-48750000D03*
X15500000Y-71250000D03*
X17000000Y-71250000D03*
D31*
X6050000Y-76250000D03*
X12450000Y-76250000D03*
D19*
X61000000Y-76000000D03*
X62500000Y-76000000D03*
D22*
X36500000Y-7500000D03*
X36500000Y-9000000D03*
D32*
X78000000Y-2750000D03*
D33*
X79500000Y-2750000D03*
D32*
X78000000Y-7250000D03*
D33*
X79500000Y-7250000D03*
D32*
X73750000Y-19750000D03*
D33*
X73750000Y-21250000D03*
D32*
X69250000Y-19750000D03*
D33*
X69250000Y-21250000D03*
D26*
X36000000Y-106920000D03*
D27*
X36000000Y-98620000D03*
D28*
X36000000Y-96200000D03*
D26*
X46500000Y-106920000D03*
D27*
X46500000Y-98620000D03*
D28*
X46500000Y-96200000D03*
D34*
X25500000Y-8550000D03*
D35*
X28040000Y-8550000D03*
X25500000Y-11090000D03*
X28040000Y-11090000D03*
X25500000Y-13630000D03*
X28040000Y-13630000D03*
X25500000Y-16170000D03*
X28040000Y-16170000D03*
X25500000Y-18710000D03*
X28040000Y-18710000D03*
X25500000Y-21250000D03*
X28040000Y-21250000D03*
X25500000Y-23790000D03*
X28040000Y-23790000D03*
X25500000Y-26330000D03*
X28040000Y-26330000D03*
X25500000Y-28870000D03*
X28040000Y-28870000D03*
X25500000Y-31410000D03*
X28040000Y-31410000D03*
X25500000Y-33950000D03*
X28040000Y-33950000D03*
X25500000Y-36490000D03*
X28040000Y-36490000D03*
X25500000Y-39030000D03*
X28040000Y-39030000D03*
X25500000Y-41570000D03*
X28040000Y-41570000D03*
X25500000Y-44110000D03*
X28040000Y-44110000D03*
X25500000Y-46650000D03*
X28040000Y-46650000D03*
X25500000Y-49190000D03*
X28040000Y-49190000D03*
X25500000Y-51730000D03*
X28040000Y-51730000D03*
X25500000Y-54270000D03*
X28040000Y-54270000D03*
X25500000Y-56810000D03*
X28040000Y-56810000D03*
D36*
X26770000Y-61680000D03*
X26770000Y-3680000D03*
X3770000Y-3680000D03*
X3770000Y-61680000D03*
D37*
X9150000Y-71250000D03*
X12350000Y-71250000D03*
D20*
X79350000Y-47250000D03*
X77650000Y-47250000D03*
X82600000Y-39500000D03*
X80900000Y-39500000D03*
X77650000Y-33000000D03*
X79350000Y-33000000D03*
X77650000Y-43750000D03*
X79350000Y-43750000D03*
D21*
X85500000Y-103400000D03*
X85500000Y-105100000D03*
X85500000Y-86600000D03*
X85500000Y-84900000D03*
X4500000Y-103400000D03*
X4500000Y-105100000D03*
D20*
X8350000Y-101750000D03*
X6650000Y-101750000D03*
D21*
X15000000Y-103400000D03*
X15000000Y-105100000D03*
D20*
X18850000Y-101750000D03*
X17150000Y-101750000D03*
X7650000Y-90500000D03*
X9350000Y-90500000D03*
X18000000Y-90500000D03*
X19700000Y-90500000D03*
D21*
X10500000Y-105350000D03*
X10500000Y-103650000D03*
X21000000Y-105350000D03*
X21000000Y-103650000D03*
D38*
X33500000Y-25750000D03*
D39*
X39500000Y-14750000D03*
X37500000Y-14750000D03*
X35500000Y-14750000D03*
X41500000Y-14750000D03*
X43500000Y-14750000D03*
X33500000Y-14750000D03*
D38*
X43500000Y-25750000D03*
X65500000Y-52750000D03*
D39*
X59500000Y-63750000D03*
X61500000Y-63750000D03*
X63500000Y-63750000D03*
X57500000Y-63750000D03*
X55500000Y-63750000D03*
X65500000Y-63750000D03*
D38*
X55500000Y-52750000D03*
X55500000Y-25750000D03*
D39*
X61500000Y-14750000D03*
X59500000Y-14750000D03*
X57500000Y-14750000D03*
X63500000Y-14750000D03*
X65500000Y-14750000D03*
X55500000Y-14750000D03*
D38*
X65500000Y-25750000D03*
D40*
X82500000Y-57750000D03*
D39*
X71500000Y-51750000D03*
X71500000Y-53750000D03*
X71500000Y-55750000D03*
X71500000Y-49750000D03*
X71500000Y-47750000D03*
X71500000Y-57750000D03*
D40*
X82500000Y-47750000D03*
D38*
X77500000Y-25750000D03*
D39*
X83500000Y-14750000D03*
X81500000Y-14750000D03*
X79500000Y-14750000D03*
X85500000Y-14750000D03*
X87500000Y-14750000D03*
X77500000Y-14750000D03*
D38*
X87500000Y-25750000D03*
X43500000Y-52750000D03*
D39*
X37500000Y-63750000D03*
X39500000Y-63750000D03*
X41500000Y-63750000D03*
X35500000Y-63750000D03*
X33500000Y-63750000D03*
X43500000Y-63750000D03*
D38*
X33500000Y-52750000D03*
D26*
X4500000Y-83080000D03*
D27*
X4500000Y-91380000D03*
D28*
X4500000Y-93800000D03*
D26*
X15000000Y-106920000D03*
D27*
X15000000Y-98620000D03*
D28*
X15000000Y-96200000D03*
D41*
X41190000Y-38198000D03*
X42460000Y-38198000D03*
X43730000Y-38198000D03*
X45000000Y-38198000D03*
X46270000Y-38198000D03*
X47540000Y-38198000D03*
X48810000Y-38198000D03*
X48810000Y-44548000D03*
X47540000Y-44548000D03*
X45000000Y-44548000D03*
X43730000Y-44548000D03*
X42460000Y-44548000D03*
X41190000Y-44548000D03*
X46270000Y-44548000D03*
D42*
X58650000Y-10975000D03*
X58650000Y-10325000D03*
X58650000Y-9675000D03*
X58650000Y-9025000D03*
X58650000Y-8375000D03*
X58650000Y-7725000D03*
X58650000Y-7075000D03*
X58650000Y-6425000D03*
X58650000Y-5775000D03*
X58650000Y-5125000D03*
X58650000Y-4475000D03*
X58650000Y-3825000D03*
X58650000Y-3175000D03*
X58650000Y-2525000D03*
X65850000Y-2525000D03*
X65850000Y-3175000D03*
X65850000Y-3825000D03*
X65850000Y-4475000D03*
X65850000Y-5125000D03*
X65850000Y-5775000D03*
X65850000Y-6425000D03*
X65850000Y-7075000D03*
X65850000Y-7725000D03*
X65850000Y-8375000D03*
X65850000Y-9025000D03*
X65850000Y-9675000D03*
X65850000Y-10325000D03*
X65850000Y-10975000D03*
D41*
X54190000Y-38198000D03*
X55460000Y-38198000D03*
X56730000Y-38198000D03*
X58000000Y-38198000D03*
X59270000Y-38198000D03*
X60540000Y-38198000D03*
X61810000Y-38198000D03*
X61810000Y-44548000D03*
X60540000Y-44548000D03*
X58000000Y-44548000D03*
X56730000Y-44548000D03*
X55460000Y-44548000D03*
X54190000Y-44548000D03*
X59270000Y-44548000D03*
D43*
X15050000Y-75200000D03*
X15050000Y-74250000D03*
X15050000Y-73300000D03*
X17750000Y-73300000D03*
X17750000Y-75200000D03*
X17750000Y-74250000D03*
D41*
X71190000Y-35198000D03*
X72460000Y-35198000D03*
X73730000Y-35198000D03*
X75000000Y-35198000D03*
X76270000Y-35198000D03*
X77540000Y-35198000D03*
X78810000Y-35198000D03*
X78810000Y-41548000D03*
X77540000Y-41548000D03*
X75000000Y-41548000D03*
X73730000Y-41548000D03*
X72460000Y-41548000D03*
X71190000Y-41548000D03*
X76270000Y-41548000D03*
D26*
X57000000Y-83080000D03*
D27*
X57000000Y-91380000D03*
D28*
X57000000Y-93800000D03*
D26*
X85500000Y-83080000D03*
D27*
X85500000Y-91380000D03*
D28*
X85500000Y-93800000D03*
D26*
X57000000Y-106920000D03*
D27*
X57000000Y-98620000D03*
D28*
X57000000Y-96200000D03*
D26*
X85500000Y-106920000D03*
D27*
X85500000Y-98620000D03*
D28*
X85500000Y-96200000D03*
D26*
X15000000Y-83080000D03*
D27*
X15000000Y-91380000D03*
D28*
X15000000Y-93800000D03*
D26*
X4500000Y-106920000D03*
D27*
X4500000Y-98620000D03*
D28*
X4500000Y-96200000D03*
D26*
X75000000Y-83080000D03*
D27*
X75000000Y-91380000D03*
D28*
X75000000Y-93800000D03*
D26*
X75000000Y-106920000D03*
D27*
X75000000Y-98620000D03*
D28*
X75000000Y-96200000D03*
D41*
X53945000Y-15825000D03*
X51405000Y-15825000D03*
X50135000Y-15825000D03*
X48865000Y-15825000D03*
X47595000Y-15825000D03*
X46325000Y-15825000D03*
X45055000Y-15825000D03*
X45055000Y-22175000D03*
X46325000Y-22175000D03*
X47595000Y-22175000D03*
X48865000Y-22175000D03*
X50135000Y-22175000D03*
X51405000Y-22175000D03*
X52675000Y-22175000D03*
X53945000Y-22175000D03*
X52675000Y-15825000D03*
D22*
X51750000Y-71750000D03*
X51750000Y-70250000D03*
X51750000Y-84500000D03*
X51750000Y-83000000D03*
D20*
X47750000Y-69250000D03*
X49450000Y-69250000D03*
X47750000Y-71250000D03*
X49450000Y-71250000D03*
X55850000Y-69250000D03*
X54150000Y-69250000D03*
X55850000Y-71250000D03*
X54150000Y-71250000D03*
D21*
X75000000Y-105100000D03*
X75000000Y-103400000D03*
X75000000Y-84900000D03*
X75000000Y-86600000D03*
D41*
X47940000Y-74198000D03*
X49210000Y-74198000D03*
X50480000Y-74198000D03*
X51750000Y-74198000D03*
X53020000Y-74198000D03*
X54290000Y-74198000D03*
X55560000Y-74198000D03*
X55560000Y-80548000D03*
X54290000Y-80548000D03*
X51750000Y-80548000D03*
X50480000Y-80548000D03*
X49210000Y-80548000D03*
X47940000Y-80548000D03*
X53020000Y-80548000D03*
D44*
X25500000Y-69500000D03*
D45*
X25500000Y-66960000D03*
D44*
X68250000Y-89250000D03*
D45*
X68250000Y-86710000D03*
D44*
X68250000Y-103250000D03*
D45*
X68250000Y-100710000D03*
D20*
X21650000Y-67000000D03*
X23350000Y-67000000D03*
D21*
X68250000Y-82900000D03*
X68250000Y-84600000D03*
X68250000Y-96900000D03*
X68250000Y-98600000D03*
D46*
X62811900Y-86649000D03*
D47*
X62811900Y-80045000D03*
X65097900Y-80045000D03*
X60525900Y-80045000D03*
D22*
X36500000Y-40750000D03*
X36500000Y-42250000D03*
D20*
X43350000Y-10500000D03*
X41650000Y-10500000D03*
X43350000Y-6500000D03*
X41650000Y-6500000D03*
X43350000Y-8500000D03*
X41650000Y-8500000D03*
D22*
X36300000Y-76650000D03*
X36300000Y-75150000D03*
D19*
X52500000Y-13500000D03*
X54000000Y-13500000D03*
D21*
X43800000Y-80600000D03*
X43800000Y-78900000D03*
X45600000Y-78900000D03*
X45600000Y-80600000D03*
D12*
X-300000Y-1600000D03*
X-300000Y-1000000D03*
X-300000Y-400000D03*
X-1700000Y-400000D03*
X-1700000Y-1000000D03*
X-1700000Y-1600000D03*
D22*
X8500000Y-66550000D03*
X8500000Y-65050000D03*
D19*
X14750000Y-63750000D03*
X16250000Y-63750000D03*
X19750000Y-63250000D03*
X21250000Y-63250000D03*
D21*
X8550000Y-62000000D03*
X8550000Y-63700000D03*
D20*
X14650000Y-65500000D03*
X16350000Y-65500000D03*
X19650000Y-65000000D03*
X21350000Y-65000000D03*
D39*
X34000000Y-78830000D03*
X34000000Y-76290000D03*
X34000000Y-73750000D03*
X34000000Y-71210000D03*
X34000000Y-43080000D03*
X34000000Y-40540000D03*
X34000000Y-38000000D03*
X34000000Y-35460000D03*
X34000000Y-10080000D03*
X34000000Y-7540000D03*
X34000000Y-5000000D03*
X34000000Y-2460000D03*
D11*
X-85500000Y-115350000D03*
M02*
