G04 #@! TF.FileFunction,Other,Comment*
%FSLAX46Y46*%
G04 Gerber Fmt 4.6, Leading zero omitted, Abs format (unit mm)*
G04 Created by KiCad (PCBNEW 4.0.6) date 2018 May 30, Wednesday 17:12:06*
%MOMM*%
%LPD*%
G01*
G04 APERTURE LIST*
%ADD10C,0.100000*%
%ADD11C,0.200000*%
%ADD12C,0.600000*%
G04 APERTURE END LIST*
D10*
D11*
X-500000Y-96000000D02*
X-1000000Y-96750000D01*
X-1500000Y-96000000D02*
X-500000Y-96000000D01*
X-1000000Y-96750000D02*
X-1500000Y-96000000D01*
X-16500000Y9500000D02*
X-1000000Y-96750000D01*
X-1500000Y-70500000D02*
X-1000000Y-71250000D01*
X-750000Y-70250000D02*
X-1500000Y-70500000D01*
X-1000000Y-71250000D02*
X-750000Y-70250000D01*
X-14500000Y9500000D02*
X-1000000Y-71250000D01*
X1000000Y-22250000D02*
X2500000Y-22750000D01*
X2500000Y-20750000D02*
X1000000Y-22250000D01*
X2500000Y-22750000D02*
X2500000Y-20750000D01*
X-13500000Y9500000D02*
X2500000Y-22750000D01*
X-39500000Y-73750000D02*
X-40750000Y-74750000D01*
X-41250000Y-73250000D02*
X-39500000Y-73750000D01*
X-40750000Y-74750000D02*
X-41250000Y-73250000D01*
X-19000000Y9500000D02*
X-40750000Y-74750000D01*
X-40500000Y-39000000D02*
X-41750000Y-39500000D01*
X-42250000Y-38250000D02*
X-40500000Y-39000000D01*
X-41750000Y-39500000D02*
X-42250000Y-38250000D01*
X-21000000Y9000000D02*
X-41750000Y-39500000D01*
X-45250000Y-7250000D02*
X-46250000Y-7250000D01*
X-46000000Y-6250000D02*
X-45250000Y-7250000D01*
X-46250000Y-7250000D02*
X-46000000Y-6250000D01*
X-25500000Y9500000D02*
X-46250000Y-7250000D01*
D12*
X-28750001Y11285714D02*
X-29035715Y11142857D01*
X-29607144Y11142857D01*
X-29892858Y11285714D01*
X-30035715Y11428571D01*
X-30178572Y11714286D01*
X-30178572Y12571429D01*
X-30035715Y12857143D01*
X-29892858Y13000000D01*
X-29607144Y13142857D01*
X-29035715Y13142857D01*
X-28750001Y13000000D01*
X-26178572Y13142857D02*
X-26178572Y11142857D01*
X-27464286Y13142857D02*
X-27464286Y11571429D01*
X-27321429Y11285714D01*
X-27035715Y11142857D01*
X-26607143Y11142857D01*
X-26321429Y11285714D01*
X-26178572Y11428571D01*
X-25178572Y13142857D02*
X-24035715Y13142857D01*
X-24750000Y14142857D02*
X-24750000Y11571429D01*
X-24607143Y11285714D01*
X-24321429Y11142857D01*
X-24035715Y11142857D01*
X-22607143Y11142857D02*
X-22892857Y11285714D01*
X-23035714Y11428571D01*
X-23178571Y11714286D01*
X-23178571Y12571429D01*
X-23035714Y12857143D01*
X-22892857Y13000000D01*
X-22607143Y13142857D01*
X-22178571Y13142857D01*
X-21892857Y13000000D01*
X-21750000Y12857143D01*
X-21607143Y12571429D01*
X-21607143Y11714286D01*
X-21750000Y11428571D01*
X-21892857Y11285714D01*
X-22178571Y11142857D01*
X-22607143Y11142857D01*
X-19035714Y13142857D02*
X-19035714Y11142857D01*
X-20321428Y13142857D02*
X-20321428Y11571429D01*
X-20178571Y11285714D01*
X-19892857Y11142857D01*
X-19464285Y11142857D01*
X-19178571Y11285714D01*
X-19035714Y11428571D01*
X-18035714Y13142857D02*
X-16892857Y13142857D01*
X-17607142Y14142857D02*
X-17607142Y11571429D01*
X-17464285Y11285714D01*
X-17178571Y11142857D01*
X-16892857Y11142857D01*
X-16035713Y11285714D02*
X-15749999Y11142857D01*
X-15178571Y11142857D01*
X-14892856Y11285714D01*
X-14749999Y11571429D01*
X-14749999Y11714286D01*
X-14892856Y12000000D01*
X-15178571Y12142857D01*
X-15607142Y12142857D01*
X-15892856Y12285714D01*
X-16035713Y12571429D01*
X-16035713Y12714286D01*
X-15892856Y13000000D01*
X-15607142Y13142857D01*
X-15178571Y13142857D01*
X-14892856Y13000000D01*
X-11464286Y13142857D02*
X-10892857Y11142857D01*
X-10321428Y12571429D01*
X-9750000Y11142857D01*
X-9178571Y13142857D01*
X-8035714Y11142857D02*
X-8035714Y13142857D01*
X-8035714Y14142857D02*
X-8178571Y14000000D01*
X-8035714Y13857143D01*
X-7892857Y14000000D01*
X-8035714Y14142857D01*
X-8035714Y13857143D01*
X-7035715Y13142857D02*
X-5892858Y13142857D01*
X-6607143Y14142857D02*
X-6607143Y11571429D01*
X-6464286Y11285714D01*
X-6178572Y11142857D01*
X-5892858Y11142857D01*
X-4892857Y11142857D02*
X-4892857Y14142857D01*
X-3607143Y11142857D02*
X-3607143Y12714286D01*
X-3750000Y13000000D01*
X-4035714Y13142857D01*
X-4464286Y13142857D01*
X-4750000Y13000000D01*
X-4892857Y12857143D01*
X-35714Y13857143D02*
X107143Y14000000D01*
X392857Y14142857D01*
X1107143Y14142857D01*
X1392857Y14000000D01*
X1535714Y13857143D01*
X1678571Y13571429D01*
X1678571Y13285714D01*
X1535714Y12857143D01*
X-178572Y11142857D01*
X1678571Y11142857D01*
X2964286Y11142857D02*
X2964286Y13142857D01*
X2964286Y12857143D02*
X3107143Y13000000D01*
X3392857Y13142857D01*
X3821429Y13142857D01*
X4107143Y13000000D01*
X4250000Y12714286D01*
X4250000Y11142857D01*
X4250000Y12714286D02*
X4392857Y13000000D01*
X4678571Y13142857D01*
X5107143Y13142857D01*
X5392857Y13000000D01*
X5535714Y12714286D01*
X5535714Y11142857D01*
X6964286Y11142857D02*
X6964286Y13142857D01*
X6964286Y12857143D02*
X7107143Y13000000D01*
X7392857Y13142857D01*
X7821429Y13142857D01*
X8107143Y13000000D01*
X8250000Y12714286D01*
X8250000Y11142857D01*
X8250000Y12714286D02*
X8392857Y13000000D01*
X8678571Y13142857D01*
X9107143Y13142857D01*
X9392857Y13000000D01*
X9535714Y12714286D01*
X9535714Y11142857D01*
X12821428Y13142857D02*
X13964285Y13142857D01*
X13250000Y14142857D02*
X13250000Y11571429D01*
X13392857Y11285714D01*
X13678571Y11142857D01*
X13964285Y11142857D01*
X15392857Y11142857D02*
X15107143Y11285714D01*
X14964286Y11428571D01*
X14821429Y11714286D01*
X14821429Y12571429D01*
X14964286Y12857143D01*
X15107143Y13000000D01*
X15392857Y13142857D01*
X15821429Y13142857D01*
X16107143Y13000000D01*
X16250000Y12857143D01*
X16392857Y12571429D01*
X16392857Y11714286D01*
X16250000Y11428571D01*
X16107143Y11285714D01*
X15821429Y11142857D01*
X15392857Y11142857D01*
X18107143Y11142857D02*
X17821429Y11285714D01*
X17678572Y11428571D01*
X17535715Y11714286D01*
X17535715Y12571429D01*
X17678572Y12857143D01*
X17821429Y13000000D01*
X18107143Y13142857D01*
X18535715Y13142857D01*
X18821429Y13000000D01*
X18964286Y12857143D01*
X19107143Y12571429D01*
X19107143Y11714286D01*
X18964286Y11428571D01*
X18821429Y11285714D01*
X18535715Y11142857D01*
X18107143Y11142857D01*
X20821429Y11142857D02*
X20535715Y11285714D01*
X20392858Y11571429D01*
X20392858Y14142857D01*
M02*
