M48
;DRILL file {KiCad 4.0.6} date 2018 May 30, Wednesday 17:12:09
;FORMAT={-:-/ absolute / inch / decimal}
FMAT,2
INCH,TZ
T1C0.016
T2C0.102
T3C0.122
T4C0.157
T5C0.256
T6C0.295
%
G90
G05
M72
T1
X-0.0669Y-0.0157
X-0.0669Y-0.0394
X-0.0669Y-0.063
X-0.0669Y-2.2598
X-0.0669Y-2.2835
X-0.0669Y-2.3071
X-0.0669Y-3.3228
X-0.0669Y-3.3465
X-0.0669Y-3.3701
X-0.0669Y-4.189
X-0.0669Y-4.2126
X-0.0669Y-4.2362
X-0.0118Y-0.0157
X-0.0118Y-0.0394
X-0.0118Y-0.063
X-0.0118Y-2.2598
X-0.0118Y-2.2835
X-0.0118Y-2.3071
X-0.0118Y-3.3228
X-0.0118Y-3.3465
X-0.0118Y-3.3701
X-0.0118Y-4.189
X-0.0118Y-4.2126
X-0.0118Y-4.2362
T3
X-2.6378Y-2.687
X-0.9547Y-3.4646
X-0.9547Y-4.0157
T4
X-3.4646Y-2.9134
X-3.0512Y-2.9134
X-2.6378Y-2.9134
T5
X-3.4646Y-3.4646
X-3.4646Y-4.0157
X-3.0512Y-3.4646
X-3.0512Y-4.0157
X-2.6378Y-3.4646
X-2.6378Y-4.0157
X-2.2244Y-3.4646
X-2.2244Y-4.0157
X-1.811Y-3.4646
X-1.811Y-4.0157
X-1.3976Y-3.4646
X-1.3976Y-4.0157
X-0.689Y-3.4646
X-0.689Y-4.0157
X-0.2756Y-3.4646
X-0.2756Y-4.0157
T6
X-2.126Y-1.0138
X-2.126Y-2.0768
X-1.2598Y-1.0138
X-1.2598Y-2.0768
X-0.3937Y-1.0138
X-0.3937Y-2.0768
T2
X-3.4134Y0.2894G85X-3.3189Y0.2894
G05
X-3.4134Y-4.5413G85X-3.3189Y-4.5413
G05
X-0.4213Y0.2894G85X-0.3268Y0.2894
G05
X-0.4213Y-4.5413G85X-0.3268Y-4.5413
G05
T0
M30
