M48
;DRILL file {KiCad 4.0.6} date 2018 May 30, Wednesday 17:12:09
;FORMAT={-:-/ absolute / inch / decimal}
FMAT,2
INCH,TZ
T1C0.016
T2C0.020
T3C0.024
T4C0.028
T5C0.035
T6C0.039
T7C0.040
T8C0.091
T9C0.110
%
G90
G05
M72
T1
X0.2697Y-2.5748
X0.2972Y-3.4882
X0.3445Y-3.0413
X0.3445Y-3.0709
X0.372Y-4.1319
X0.374Y-3.0118
X0.374Y-3.0413
X0.374Y-3.0709
X0.3799Y-2.5098
X0.4035Y-2.9528
X0.4035Y-2.9823
X0.4035Y-3.0118
X0.4035Y-3.0413
X0.4035Y-3.0709
X0.4331Y-2.9528
X0.4331Y-2.9823
X0.4331Y-3.0118
X0.4331Y-3.0413
X0.4331Y-3.0709
X0.4331Y-3.185
X0.4626Y-2.4823
X0.4892Y-0.7572
X0.5433Y-0.8593
X0.5433Y-0.9409
X0.5512Y-0.5886
X0.5571Y-1.0197
X0.5709Y-2.628
X0.5807Y-0.5571
X0.6043Y-0.5295
X0.6289Y-3.1024
X0.6358Y-0.5039
X0.6457Y-0.8957
X0.6496Y-0.9547
X0.6594Y-0.7539
X0.6614Y-0.4783
X0.6614Y-0.8425
X0.6909Y-0.4547
X0.7165Y-0.4272
X0.7421Y-0.4016
X0.748Y-1.3858
X0.7933Y-2.63
X0.815Y-1.0886
X0.8366Y-3.1083
X0.8504Y-2.0531
X0.872Y-0.3504
X0.872Y-2.6004
X0.878Y-4.1398
X0.8819Y-3.1575
X0.9114Y-3.4823
X1.002Y-3.4409
X1.1339Y-0.2559
X1.1732Y-1.4646
X1.185Y-0.7677
X1.2104Y-2.3951
X1.2118Y-0.6102
X1.2146Y-0.2008
X1.2172Y-2.3543
X1.2191Y-3.3959
X1.2295Y-0.6643
X1.3376Y-0.4744
X1.456Y-1.1146
X1.4764Y-0.8445
X1.502Y-2.7461
X1.502Y-2.7854
X1.5039Y-1.2657
X1.5059Y-0.3386
X1.5492Y-2.1319
X1.5531Y-2.3307
X1.5581Y-1.2657
X1.5689Y-1.3386
X1.6122Y-2.1437
X1.6201Y-1.6988
X1.6949Y-3.1713
X1.7185Y-1.6949
X1.7205Y-1.8071
X1.7224Y-1.4449
X1.7224Y-1.5591
X1.7323Y-1.9469
X1.8543Y-2.4193
X1.8819Y-1.4547
X1.8819Y-1.8209
X1.8878Y-2.376
X1.8917Y-2.876
X1.9173Y-1.2283
X1.9252Y-1.6752
X1.943Y-1.0696
X1.9724Y-0.9783
X1.9744Y-1.1909
X1.9803Y-1.3366
X1.9882Y-2.9941
X2.002Y-1.0138
X2.0098Y-0.1043
X2.0217Y-0.8169
X2.0226Y-1.1427
X2.0413Y-2.5827
X2.0601Y-1.2365
X2.065Y-1.6555
X2.0807Y-0.0709
X2.0866Y-2.8524
X2.0886Y-2.9606
X2.187Y-1.5827
X2.2087Y-2.2402
X2.2323Y-2.9193
X2.2657Y-2.2697
X2.3012Y-1.1122
X2.315Y-3.9429
X2.3567Y-3.4197
X2.372Y-0.2244
X2.3839Y-1.5512
X2.437Y-0.378
X2.4449Y-1.2224
X2.4764Y-0.378
X2.498Y-1.685
X2.5059Y-0.7008
X2.5945Y-1.5866
X2.6417Y-3.2736
X2.6496Y-1.378
X2.6524Y-0.2963
X2.6535Y-0.3297
X2.6772Y-3.2293
X2.7283Y-3.2677
X2.7382Y-1.3602
X2.7455Y-1.7867
X2.7539Y-1.2264
X2.7598Y-3.2539
X2.7756Y-1.8346
X2.8159Y-1.7828
X2.9469Y-2.1831
X3.0945Y-1.8996
X3.1004Y-2.0807
X3.1673Y-1.2972
X3.1949Y-1.7205
X3.2087Y-0.7795
X3.3957Y-1.435
X3.4311Y-1.7972
T3
X0.4193Y-3.565
X0.4685Y-4.0787
X0.6693Y-3.189
X0.7697Y-3.6161
X0.8268Y-4.0394
X1.2047Y-0.5138
X1.2067Y-1.4165
X1.2303Y-0.8583
X1.7717Y-1.4508
X2.1201Y-0.563
X2.1831Y-0.3878
X2.185Y-0.2047
X2.2815Y-1.563
X2.5039Y-3.061
X2.5707Y-3.25
X2.6614Y-0.4547
X2.8307Y-2.4311
X2.8366Y-0.3248
X2.9567Y-1.3346
X2.9587Y-1.7028
X3.1555Y-3.2146
T4
X2.7264Y-0.7776
X2.7264Y-0.8366
X2.9035Y-0.7776
X2.9035Y-0.8366
X3.0709Y-0.1083
X3.0709Y-0.2854
X3.1299Y-0.1083
X3.1299Y-0.2854
T5
X1.0039Y-2.6362
X1.0039Y-2.7362
X1.3386Y-0.0969
X1.3386Y-0.1969
X1.3386Y-0.2969
X1.3386Y-0.3969
X1.3386Y-1.3961
X1.3386Y-1.4961
X1.3386Y-1.5961
X1.3386Y-1.6961
X1.3386Y-2.8035
X1.3386Y-2.9035
X1.3386Y-3.0035
X1.3386Y-3.1035
X2.687Y-3.4138
X2.687Y-3.5138
X2.687Y-3.965
X2.687Y-4.065
T6
X2.9709Y-2.6331
X2.9709Y-2.7331
X2.9709Y-2.8331
X2.9709Y-2.9331
X2.9709Y-3.0331
X3.0709Y-2.6331
X3.0709Y-2.7331
X3.0709Y-2.8331
X3.0709Y-2.9331
X3.0709Y-3.0331
T7
X1.0039Y-0.3366
X1.0039Y-0.4366
X1.0039Y-0.5366
X1.0039Y-0.6366
X1.0039Y-0.7366
X1.0039Y-0.8366
X1.0039Y-0.9366
X1.0039Y-1.0366
X1.0039Y-1.1366
X1.0039Y-1.2366
X1.0039Y-1.3366
X1.0039Y-1.4366
X1.0039Y-1.5366
X1.0039Y-1.6366
X1.0039Y-1.7366
X1.0039Y-1.8366
X1.0039Y-1.9366
X1.0039Y-2.0366
X1.0039Y-2.1366
X1.0039Y-2.2366
X1.1039Y-0.3366
X1.1039Y-0.4366
X1.1039Y-0.5366
X1.1039Y-0.6366
X1.1039Y-0.7366
X1.1039Y-0.8366
X1.1039Y-0.9366
X1.1039Y-1.0366
X1.1039Y-1.1366
X1.1039Y-1.2366
X1.1039Y-1.3366
X1.1039Y-1.4366
X1.1039Y-1.5366
X1.1039Y-1.6366
X1.1039Y-1.7366
X1.1039Y-1.8366
X1.1039Y-1.9366
X1.1039Y-2.0366
X1.1039Y-2.1366
X1.1039Y-2.2366
T9
X0.1484Y-0.1449
X0.1484Y-2.4283
X1.0539Y-0.1449
X1.0539Y-2.4283
T2
X0.1575Y-3.2709G85X0.1969Y-3.2709
G05
X0.1969Y-4.2094G85X0.1575Y-4.2094
G05
X0.5709Y-3.2709G85X0.6102Y-3.2709
G05
X0.6102Y-4.2094G85X0.5709Y-4.2094
G05
X0.9843Y-3.2709G85X1.0236Y-3.2709
G05
X1.0236Y-4.2094G85X0.9843Y-4.2094
G05
X1.3976Y-3.2709G85X1.437Y-3.2709
G05
X1.437Y-4.2094G85X1.3976Y-4.2094
G05
X1.811Y-3.2709G85X1.8504Y-3.2709
G05
X1.8504Y-4.2094G85X1.811Y-4.2094
G05
X2.2244Y-3.2709G85X2.2638Y-3.2709
G05
X2.2638Y-4.2094G85X2.2244Y-4.2094
G05
X2.9331Y-3.2709G85X2.9724Y-3.2709
G05
X2.9724Y-4.2094G85X2.9331Y-4.2094
G05
X3.3465Y-3.2709G85X3.3858Y-3.2709
G05
X3.3858Y-4.2094G85X3.3465Y-4.2094
G05
T3
X0.1594Y-3.5976G85X0.1949Y-3.5976
G05
X0.1634Y-3.6929G85X0.1909Y-3.6929
G05
X0.1909Y-3.7874G85X0.1634Y-3.7874
G05
X0.1949Y-3.8827G85X0.1594Y-3.8827
G05
X0.5728Y-3.5976G85X0.6083Y-3.5976
G05
X0.5768Y-3.6929G85X0.6043Y-3.6929
G05
X0.6043Y-3.7874G85X0.5768Y-3.7874
G05
X0.6083Y-3.8827G85X0.5728Y-3.8827
G05
X0.9862Y-3.5976G85X1.0217Y-3.5976
G05
X0.9902Y-3.6929G85X1.0177Y-3.6929
G05
X1.0177Y-3.7874G85X0.9902Y-3.7874
G05
X1.0217Y-3.8827G85X0.9862Y-3.8827
G05
X1.3996Y-3.5976G85X1.435Y-3.5976
G05
X1.4035Y-3.6929G85X1.4311Y-3.6929
G05
X1.4311Y-3.7874G85X1.4035Y-3.7874
G05
X1.435Y-3.8827G85X1.3996Y-3.8827
G05
X1.813Y-3.5976G85X1.8484Y-3.5976
G05
X1.8169Y-3.6929G85X1.8445Y-3.6929
G05
X1.8445Y-3.7874G85X1.8169Y-3.7874
G05
X1.8484Y-3.8827G85X1.813Y-3.8827
G05
X2.2264Y-3.5976G85X2.2618Y-3.5976
G05
X2.2303Y-3.6929G85X2.2579Y-3.6929
G05
X2.2579Y-3.7874G85X2.2303Y-3.7874
G05
X2.2618Y-3.8827G85X2.2264Y-3.8827
G05
X2.935Y-3.5976G85X2.9705Y-3.5976
G05
X2.939Y-3.6929G85X2.9665Y-3.6929
G05
X2.9665Y-3.7874G85X2.939Y-3.7874
G05
X2.9705Y-3.8827G85X2.935Y-3.8827
G05
X3.3484Y-3.5976G85X3.3839Y-3.5976
G05
X3.3524Y-3.6929G85X3.3799Y-3.6929
G05
X3.3799Y-3.7874G85X3.3524Y-3.7874
G05
X3.3839Y-3.8827G85X3.3484Y-3.8827
G05
T6
X1.3189Y-0.5807G85X1.3189Y-0.5807
G05
X1.3189Y-2.5098G85X1.3189Y-2.5098
G05
X1.3976Y-0.5807G85X1.3976Y-0.5807
G05
X1.3976Y-2.5098G85X1.3976Y-2.5098
G05
X1.4764Y-0.5807G85X1.4764Y-0.5807
G05
X1.4764Y-2.5098G85X1.4764Y-2.5098
G05
X1.5551Y-0.5807G85X1.5551Y-0.5807
G05
X1.5551Y-2.5098G85X1.5551Y-2.5098
G05
X1.6339Y-0.5807G85X1.6339Y-0.5807
G05
X1.6339Y-2.5098G85X1.6339Y-2.5098
G05
X1.7126Y-0.5807G85X1.7126Y-0.5807
G05
X1.7126Y-2.5098G85X1.7126Y-2.5098
G05
X2.185Y-0.5807G85X2.185Y-0.5807
G05
X2.185Y-2.5098G85X2.185Y-2.5098
G05
X2.2638Y-0.5807G85X2.2638Y-0.5807
G05
X2.2638Y-2.5098G85X2.2638Y-2.5098
G05
X2.3425Y-0.5807G85X2.3425Y-0.5807
G05
X2.3425Y-2.5098G85X2.3425Y-2.5098
G05
X2.4213Y-0.5807G85X2.4213Y-0.5807
G05
X2.4213Y-2.5098G85X2.4213Y-2.5098
G05
X2.5Y-0.5807G85X2.5Y-0.5807
G05
X2.5Y-2.5098G85X2.5Y-2.5098
G05
X2.5787Y-0.5807G85X2.5787Y-0.5807
G05
X2.5787Y-2.5098G85X2.5787Y-2.5098
G05
X2.815Y-1.8799G85X2.815Y-1.8799
G05
X2.815Y-1.9587G85X2.815Y-1.9587
G05
X2.815Y-2.0374G85X2.815Y-2.0374
G05
X2.815Y-2.1161G85X2.815Y-2.1161
G05
X2.815Y-2.1949G85X2.815Y-2.1949
G05
X2.815Y-2.2736G85X2.815Y-2.2736
G05
X3.0512Y-0.5807G85X3.0512Y-0.5807
G05
X3.1299Y-0.5807G85X3.1299Y-0.5807
G05
X3.2087Y-0.5807G85X3.2087Y-0.5807
G05
X3.2874Y-0.5807G85X3.2874Y-0.5807
G05
X3.3661Y-0.5807G85X3.3661Y-0.5807
G05
X3.4449Y-0.5807G85X3.4449Y-0.5807
G05
T8
X1.3189Y-1.0177G85X1.3189Y-1.0098
G05
X1.3189Y-2.0728G85X1.3189Y-2.0807
G05
X1.7126Y-1.0177G85X1.7126Y-1.0098
G05
X1.7126Y-2.0728G85X1.7126Y-2.0807
G05
X2.185Y-1.0177G85X2.185Y-1.0098
G05
X2.185Y-2.0728G85X2.185Y-2.0807
G05
X2.5787Y-1.0177G85X2.5787Y-1.0098
G05
X2.5787Y-2.0728G85X2.5787Y-2.0807
G05
X3.0512Y-1.0177G85X3.0512Y-1.0098
G05
X3.252Y-1.8799G85X3.2441Y-1.8799
G05
X3.252Y-2.2736G85X3.2441Y-2.2736
G05
X3.4449Y-1.0177G85X3.4449Y-1.0098
G05
T0
M30
